<?xml version="1.0" encoding="UTF-8"?>
<svg id="Layer_2" data-name="Layer 2" xmlns="http://www.w3.org/2000/svg" viewBox="0 0 1383.2 378.61">
  <defs>
    <style>
      .cls-1 {
        font-family: Oxanium-SemiBold, Oxanium;
        font-size: 45.89px;
        font-weight: 600;
      }

      .cls-2 {
        letter-spacing: 0em;
      }

      .cls-3 {
        letter-spacing: 0em;
      }

      .cls-4 {
        fill: #0e5bbd;
      }

      .cls-5 {
        fill: #021833;
      }

      .cls-6 {
        fill: #4b5f77;
      }

      .cls-7 {
        fill: #344a64;
      }

      .cls-8 {
        letter-spacing: -.04em;
      }

      .cls-9 {
        fill: #0c59bb;
      }

      .cls-10 {
        letter-spacing: -.05em;
      }

      .cls-11 {
        fill: #182542;
      }

      .cls-12 {
        letter-spacing: 0em;
      }

      .cls-13 {
        fill: #031934;
      }

      .cls-14 {
        fill: #3c516a;
      }

      .cls-15 {
        letter-spacing: -.03em;
      }

      .cls-16 {
        fill: #041b36;
      }

      .cls-17 {
        fill: #2e455f;
      }

      .cls-18 {
        fill: #63758b;
      }

      .cls-19 {
        font-family: Oxanium-Bold, Oxanium;
        font-size: 148.99px;
        font-weight: 700;
      }

      .cls-20 {
        fill: #576b81;
      }
    </style>
  </defs>
  <g id="Layer_1-2" data-name="Layer 1">
    <g>
      <path class="cls-4" d="M149.17,16.28c-35.82,4.32-68.42,20.33-92.4,46.8C6.34,118.77,2.3,200.6,43.89,263.37c-4.62-1.63-8.06-5.12-11.04-9.24-17.5-24.2-27.36-52.56-29.15-82.65-1.91-32.2,6.59-63.46,22.58-91.15C49.75,39.7,88.8,12.22,134.7,3.11c48.69-9.66,98.39,3.36,135.38,36.8,24.07,21.76,41.48,50.04,50.17,81.45,16.37,59.18-2.81,123.2-49.85,163.12,8.2-12.18,16.94-22.52,23.65-35.38,13.95-26.71,21.28-55.69,19.78-86.23-2.17-44.38-23.12-86.37-56.99-114.74-30.16-25.26-68.17-36.61-107.67-31.85Z"/>
      <path class="cls-5" d="M166.88,273.1l.35-29,.08-18.45.08-9.1-.22-89.01-16.01,5.68-63.96,21.91c-.02-1.23-.26-2.31.78-3.26l81.98-30.31,71.32,26.8,7.19,75.24c-11.7,10-23.53,18.42-36.59,26.23-14.64,8.99-29.35,16.64-45,23.26ZM221.13,190.81c.34-4.93.59-9.3-.57-13.67l-22.6-7.51.16,14.82,23.01,6.36ZM192.98,182.78c.79-1.2.27-2.18-.13-2.32-7.56-2.59-15.1-3.91-22.84-3.75-.15,2.29,1.37,2.64,2.82,2.85,7.01.99,13.67,1.66,20.15,3.22ZM242.76,214.32l-.76-13.66-21.63-6.33.28,14.24,22.11,5.75Z"/>
      <path class="cls-16" d="M66.55,361.81c.38,1.51.81,2.88.2,5.89l62.47-.57,15.94-.03,55.31-.33-21.31-5.63-12.88-1.31.64-30.59c.03-1.32-.3-2.4-.91-3.59,24.13-11.5,47.05-25.62,68.22-42.49l20.75-18.45,14.34,102.91,27.47,10.3c-23.27,1.21-45.54.52-69.05.49l-194.95-.3,32.62-10.41,1.15-5.87ZM208.19,332.54c.08.67,1.48,1.57,2.11,1.65l7.2.89c1.76.22,3.54.51,5.07-.49-.19-3.39-.9-5.96-.34-8.65h1.2s.37,9.42.37,9.42l19.89,3.09c1.15-4.55,1.29-9.02.26-13.46l-35.65-8.14c-.76,5.6-.77,10.54-.11,15.7ZM254.83,359.74l-.47-11.65c-6.35-.88-11.91-2.74-18.22-2.4l.18,10.38,18.51,3.67Z"/>
      <path class="cls-9" d="M0,317.1c-.48-20.4,23.55-38.32,39.85-46.91-6.76,6.63-12.65,12.42-16.28,20.37-3.56,7.8-1.02,15.57,6.86,18.98,18.46,7.98,52.53,3.87,73.62-1.23,72.66-17.57,140.17-57.52,189.17-115.2-5.03,17.43-15.74,30.68-26.49,43.88-25.46,27.89-55.52,49.16-89.09,66.36-40.27,20.63-90.3,37.1-135.54,35.32-10.88-.43-21.41-1.77-30.96-6.7-5.62-2.91-10.99-7.84-11.15-14.86Z"/>
      <path class="cls-18" d="M167.28,48.43l-.04,52.09-93.86,35.84c-1.33.51-2.29.39-2.67,1.64-.46-.21-1.12-.74-1.12-1.71l.16-44.66,17.14-6.57c-.52,4.57.52,9.1.23,13.48l-.65,9.64c-.13.27,1.12.48,1.49.34l16.69-6.01-.08-26.44c6.67-2.52,12.63-4.44,18.78-7.54,9.02,5.72,6.29,7.9,6.25,12.44-3.75.24-5.93,6.84-5.28,13.29,2.05-.65,4.15-2.33,4.78-4.66.54.46.11,1.32.26,2.79l13.97-4.91-.07-29.88,20.07-8.34c1.51-.63,2.68-.79,3.93-.83Z"/>
      <path class="cls-17" d="M87.96,108.53c-.38.14-1.63-.07-1.49-.34l.65-9.64c3.46,4.02,2.95-.71,1.66-9.03.87-.34,1.23-1.09,1.22-1.84,1.58.2,2.89,1.49,2.71,3.53l-1.07,11.98c-.18,1.98-3.3,3.32-3.67,5.35Z"/>
      <path class="cls-11" d="M239.6,81.83l.19.5c-.67.9-1.22,2.25-.87,3.74.65,2.79-.21,5.21.15,7.48l.77,4.87c.16,1.02,1.31,1.29,1.87.68.19,1.49.48,3.04.4,4.56l-1.72,2.4h-.89s-1.57-.05-1.57-.05c-.14-.13-.38-.2-.55,0l-.8-20.68c-.04-1.11.15-2.12.74-2.69s1.53-.68,2.26-.82Z"/>
      <path class="cls-13" d="M129.61,80.97c-.03,2.93.28,5.8-.49,8.63-.63,2.33-2.73,4.01-4.78,4.66-.65-6.45,1.53-13.05,5.28-13.29Z"/>
      <path class="cls-18" d="M90,87.67c.01.75-.35,1.5-1.22,1.84-.18-1.13-1.05-2.4-.32-3.79l1.54,1.95Z"/>
      <path class="cls-16" d="M237.39,106.02c.17-.2.41-.12.55,0-.3.27,0,.96.36.96s.97-.53,1.21-.91h.89s.03,1.36.03,1.36c0,.5,1.22.81,1.42.19.43-1.33.22-2.78.28-3.95.08-1.52-.21-3.08-.4-4.56l-.7-5.51-1.23-11.27-.19-.5c.55-1.17,1.47-1.5,2.69-.94l16.67,7.62v48.41s-13.57,6.05-13.57,6.05c.39-.59.99-2.4.12-2.73l-57.38-21.81c-7.74-2.94-14.9-5.14-22.24-9.54l-84.33,32.36c-4.08-.79-7.53-1.7-10.85-3.23.38-1.25,1.33-1.13,2.67-1.64l93.86-35.84.04-52.09c2.15-.06,3.96.88,6.16,1.85l15.16,6.71.08,30.73,14.6,5.63c-.93-8.81-.96-16.29-.99-24.52,1.24-1.53,2.87-2.44,4.73-3.36l17.94,7.87c.57,9.05.28,17.72-.15,27.44,4.11,2.25,8.38,3.98,12.58,5.25ZM204.01,92.8l-.42.42.42.42.42-.42-.42-.42Z"/>
      <path class="cls-6" d="M221.13,190.81l-23.01-6.36-.16-14.82,22.6,7.51c1.16,4.38.91,8.75.57,13.67Z"/>
      <polygon class="cls-17" points="242.76 214.32 220.65 208.57 220.37 194.32 242 200.66 242.76 214.32"/>
      <path class="cls-6" d="M192.98,182.78c-6.47-1.55-13.14-2.22-20.15-3.22-1.46-.21-2.97-.56-2.82-2.85,7.75-.16,15.28,1.15,22.84,3.75.4.14.92,1.11.13,2.32Z"/>
      <path class="cls-14" d="M217.51,335.08c1.1-1.86-4.17-2.51-9.31-2.53-.65-5.16-.65-10.1.11-15.7l35.65,8.14c1.04,4.44.89,8.9-.26,13.46l-19.89-3.09-.37-9.42h-1.2c-.56,2.7.14,5.27.34,8.65-1.53,1-3.31.71-5.07.49Z"/>
      <path class="cls-11" d="M254.83,359.74l-18.51-3.67-.18-10.38c6.31-.33,11.87,1.52,18.22,2.4l.47,11.65Z"/>
      <path class="cls-18" d="M217.51,335.08l-7.2-.89c-.63-.08-2.03-.98-2.11-1.65,5.14.03,10.41.68,9.31,2.53Z"/>
      <path class="cls-13" d="M111.41,216.69l-.04-34.51c.79-7.23,4.63-14.13,11.33-16.4,7.17-2.43,14.88,3.59,14.99,11.44l.46,32.37-26.74,7.1Z"/>
      <path class="cls-20" d="M241.02,93.59l-1.94-.04c-.36-2.28.5-4.69-.15-7.48-.35-1.49.2-2.84.87-3.74l1.23,11.27Z"/>
      <path class="cls-7" d="M241.02,93.59l.7,5.51c-.56.6-1.71.33-1.87-.68l-.77-4.87,1.94.04Z"/>
      <path class="cls-7" d="M240.39,106.07l1.72-2.4c-.06,1.17.16,2.63-.28,3.95-.2.62-1.41.31-1.42-.19l-.03-1.36Z"/>
      <path class="cls-7" d="M239.51,106.06c-.24.38-.85.92-1.21.91s-.66-.69-.36-.96l1.57.05Z"/>
      <g>
        <path class="cls-7" d="M179.16,361.14l-12.88-1.31.64-30.59c.03-1.32-.3-2.4-.91-3.59-30.3,14.44-64.83,25.53-98.84,29.32-.46,2.29-1.11,4.86-.62,6.84.38,1.51.81,2.88.2,5.89l62.47-.57,15.94-.03,55.32-.33-21.31-5.63Z"/>
        <path class="cls-20" d="M81.22,233.65l-2.63,22.54-2.22,18.42-3.24,24.03c13.52-1.09,26.17-3.58,39.02-6.6,18.96-4.45,36.77-11.33,54.74-18.94l.35-29,.08-18.45.08-9.1-.22-89.01-16.01,5.68-63.96,21.91c.14,10.57-.63,20.65-1.58,31.28l-3.48,38.88M139.84,212.86l-11.03,3.1c-2.02.57-2.52.51-4.46.89l-12.27,2.39c-.95.18-2.12-.49-1.79-1.22.19-.42.84-.91,1.12-1.33l-.04-34.51c.79-7.23,4.63-14.13,11.33-16.4.34-2.23,2.84-2.95,5.58-3.01,5.66-.12,11.26,5.38,11.85,11.74,1.17,12.71.5,25.48-.29,38.35Z"/>
      </g>
    </g>
    <g>
      <rect class="cls-9" x="354.4" y="286.31" width="65.3" height="3.53"/>
      <rect class="cls-9" x="1304.21" y="286.31" width="65.3" height="3.53"/>
      <text class="cls-1" transform="translate(437.55 300.38)"><tspan class="cls-12" x="0" y="0">AI Automation. Simple, </tspan><tspan class="cls-15" x="495.1" y="0">F</tspan><tspan class="cls-12" x="520.39" y="0">ast, Affordable.</tspan></text>
      <g>
        <text class="cls-19" transform="translate(340.24 189.03)"><tspan class="cls-3" x="0" y="0">Stron</tspan><tspan class="cls-8" x="381.7" y="0">g</tspan><tspan class="cls-10" x="462.75" y="0">T</tspan><tspan class="cls-2" x="546.78" y="0">ower</tspan></text>
        <g>
          <path class="cls-9" d="M1363.78,189.03v-93.05h19.42v93.05h-19.42Z"/>
          <polygon class="cls-9" points="1322.66 95.98 1292.99 95.98 1265.34 185.39 1267.77 189.03 1283.95 189.03 1289.62 170.15 1312.76 170.15 1318.42 152.62 1294.88 152.62 1306.74 113.51 1308.9 113.51 1320.76 152.59 1320.77 152.59 1320.76 152.6 1320.77 152.62 1320.76 152.62 1315.1 170.15 1326.03 170.15 1331.69 189.03 1347.87 189.03 1350.3 185.39 1322.66 95.98"/>
        </g>
      </g>
    </g>
  </g>
</svg>