<?xml version="1.0" encoding="UTF-8"?><svg id="Layer_2" xmlns="http://www.w3.org/2000/svg" viewBox="0 0 1462.3 428.87"><defs><style>.cls-1{fill:#051a35;}.cls-2{fill:#0e5bbd;}.cls-3{fill:#021833;}.cls-4{fill:#4b5f77;}.cls-5{fill:#344a64;}.cls-6{fill:#0c59bb;}.cls-7{fill:#182542;}.cls-8{fill:#031934;}.cls-9{fill:#3c516a;}.cls-10{fill:#041b36;}.cls-11{fill:#2e455f;}.cls-12{fill:#63758b;}.cls-13{fill:#286bc1;}.cls-14{fill:#576b81;}</style></defs><g id="Layer_1-2"><path class="cls-2" d="M168.97,18.44c-40.57,4.89-77.51,23.03-104.66,53.02C7.18,134.53,2.61,227.23,49.72,298.33c-5.23-1.85-9.13-5.8-12.51-10.46-19.82-27.41-30.99-59.54-33.01-93.62-2.17-36.48,7.46-71.88,25.58-103.25C56.35,44.97,100.59,13.84,152.58,3.52c55.15-10.95,111.45,3.81,153.35,41.68,27.27,24.65,46.99,56.69,56.83,92.27,18.54,67.03-3.18,139.55-56.47,184.77,9.29-13.8,19.19-25.51,26.79-40.08,15.8-30.25,24.11-63.08,22.41-97.68-2.46-50.28-26.18-97.83-64.55-129.97-34.16-28.62-77.22-41.47-121.96-36.08Z"/><path class="cls-3" d="M189.04,309.36l.39-32.85.1-20.9.09-10.31-.25-100.82-18.13,6.44-72.45,24.82c-.02-1.39-.3-2.62.88-3.7l92.86-34.34,80.79,30.36,8.14,85.22c-13.25,11.32-26.65,20.87-41.44,29.71-16.59,10.18-33.24,18.85-50.98,26.35ZM250.48,216.14c.38-5.58.67-10.53-.64-15.49l-25.6-8.5.19,16.79,26.06,7.2ZM218.59,207.05c.89-1.36.31-2.47-.15-2.62-8.56-2.94-17.1-4.43-25.87-4.24-.17,2.59,1.55,2.99,3.2,3.22,7.94,1.12,15.49,1.88,22.82,3.64ZM274.98,242.77l-.86-15.47-24.5-7.18.32,16.14,25.04,6.51Z"/><path class="cls-10" d="M75.38,409.83c.42,1.71.92,3.26.23,6.67l70.76-.64,18.05-.03,62.66-.38-24.14-6.37-14.59-1.48.73-34.65c.03-1.49-.34-2.72-1.03-4.07,27.33-13.02,53.3-29.02,77.27-48.14l23.51-20.9,16.24,116.57,31.11,11.66c-26.36,1.37-51.58.59-78.22.55l-220.83-.34,36.95-11.79,1.3-6.65ZM235.83,376.69c.1.75,1.67,1.78,2.39,1.86l8.15,1.01c2,.25,4.01.58,5.74-.56-.22-3.83-1.02-6.75-.38-9.8h1.36s.42,10.67.42,10.67l22.53,3.49c1.3-5.16,1.47-10.22.29-15.24l-40.39-9.22c-.86,6.34-.87,11.94-.13,17.78ZM288.65,407.49l-.53-13.2c-7.19-1-13.49-3.1-20.64-2.72l.2,11.76,20.97,4.16Z"/><path class="cls-6" d="M0,359.19c-.54-23.11,26.68-43.4,45.14-53.14-7.65,7.51-14.32,14.07-18.44,23.08s-1.16,17.63,7.77,21.5c20.91,9.04,59.5,4.38,83.39-1.39,82.3-19.9,158.78-65.16,214.29-130.49-5.7,19.74-17.83,34.75-30.01,49.7-28.84,31.59-62.89,55.69-100.91,75.17-45.62,23.37-102.29,42.03-153.53,40-12.32-.49-24.26-2-35.06-7.59-6.36-3.29-12.45-8.88-12.63-16.83Z"/><path class="cls-12" d="M189.62,245.31c-3.16-.65-.48-5.31-2.33-9.2-4.01,5.74-9.37,7.39-14.92,9.59l-10.14,4.02-17.26,2.72-20.45,8.64c-5.4,2.28-9.68,4.51-14.27,7.46l-18.17,6.82c1.14-4.68,2.3-7.51-.07-10.69.16-1.37.26-2.76.84-3.91,1.83.5,1.76-1.32,1.48-2.78-.14-.73.23-2.1-1.27-2.76l3.94-44.04c1.08-12.03,1.94-23.45,1.79-35.43l72.45-24.82,18.13-6.44.25,100.82ZM139,187.79c-7.59,2.58-11.94,10.39-12.84,18.58l.04,39.09c-.32.48-1.06,1.03-1.27,1.51-.36.83.96,1.59,2.03,1.38l13.9-2.71c2.19-.43,2.76-.36,5.05-1.01l12.49-3.51c.9-14.58,1.66-29.04.33-43.44-.66-7.2-7.01-13.43-13.42-13.29-3.11.06-5.94.88-6.32,3.41Z"/><path class="cls-8" d="M486.72,250.72l-64.58.5,3.4-21.58,55.05-.17c4.72-.01,8.26-3.89,8.24-8.18l-.03-10.78c-.01-4.7-3.57-8.37-8.36-8.73l-34.18-2.57c-14.9-1.12-24.72-12.91-24.06-27.87l.75-16.92c2.05-11.85,11.02-21.54,23.69-21.61l58.74-.33-1.44,20.96-48.33.19c-3.4.01-6.52,1-8.3,3.01-3.31,3.74-3.12,15.18-.48,18.58,1.49,1.92,4.53,2.99,7.83,3.32l34.17,3.39c12.51,1.24,21.46,10.32,22.48,23.05l.1,22.04c-1.27,12.71-10.84,23.59-24.69,23.7Z"/><polygon class="cls-6" points="1371.64 158.68 1354.96 205.52 1385.9 205.72 1378.01 225.32 1347.72 225.27 1338.27 250.95 1313.51 251.04 1330.92 205.12 1357.92 132.72 1384.89 132.73 1424.84 237.42 1429.71 251.06 1405.1 250.96 1395.7 225.44 1380.15 225.4 1388.56 205.21 1371.64 158.68"/><path class="cls-8" d="M859.12,285.06c.45-.35.07-1.05-.68-1.05l-44.6-.33,3.19-17.3,36.76-.08c3.54,0,7.36-2.57,7.41-6l.13-9.33h-30.33c-12.59.02-22.43-10.23-22.49-22.84l-.18-36c.4-12.23,9.23-23.06,22.06-23.14l52.15-.34-.18,92.74c-.03,13.25-10.29,23.69-23.25,23.66ZM856.72,231.43c3.69.01,4.9-3.23,4.88-6.03l-.21-34.13c-.01-2.29-1.69-3.58-3.87-3.59l-19.95-.02c-3.72,0-7.97,2.55-8.03,6.61l-.36,28.29c-.05,4.27,2.34,8.78,7.03,8.8l20.49.08Z"/><polygon class="cls-1" points="1160.83 168.65 1151.53 202.37 1137.16 250.91 1114.76 250.93 1100.25 201.99 1085.42 250.93 1063.68 251.07 1039.58 168.65 1061.21 168.61 1075.52 220.37 1091.02 168.69 1109.07 168.67 1124.84 220.3 1139.3 168.75 1160.83 168.65"/><path class="cls-12" d="M189.48,54.86l-.05,59.01-106.32,40.6c-1.51.58-2.59.44-3.02,1.86-.52-.24-1.27-.84-1.27-1.94l.18-50.58,19.42-7.44c-.59,5.18.59,10.31.26,15.27l-.74,10.92c-.15.31,1.26.54,1.69.39l18.9-6.81-.09-29.95c7.56-2.86,14.31-5.03,21.28-8.55,10.22,6.48,7.13,8.95,7.08,14.09-4.25.27-6.72,7.75-5.98,15.06,2.32-.74,4.7-2.64,5.42-5.28.61.52.12,1.5.3,3.16l15.82-5.56-.08-33.85,22.74-9.45c1.71-.71,3.03-.9,4.46-.94Z"/><path class="cls-1" d="M1193.33,230.9l43.51.7,1.06,19.5-47.02-.09c-13.28-.03-24.25-10.52-24.21-23.9l.12-36.42c.04-12.36,10.08-21.91,22.25-21.92h30.18c10.96-.02,18.97,8.17,20.95,18.63l.76,14.26c.3,5.58-.21,10.87-3.14,15.91l-50.18.2c-1.55,3.83-.34,13.03,5.72,13.13ZM1220.18,201.01c.33-3.61.27-5.48-.1-7.76-.57-3.49-3.75-6.02-7.36-6.02l-18.07-.02c-3.08,0-6.06,1.84-6.93,4.72s-.9,5.7-.45,9.08h32.91Z"/><path class="cls-8" d="M1014.3,250.71l-32.66.11c-11.95.04-21.48-10.04-21.49-21.84l-.02-38.59c0-11.98,9.73-21.52,21.64-21.51l31.83.02c11.97,0,21.29,10.03,21.31,21.81l.08,38.03c.02,11.27-8.61,21.93-20.68,21.97ZM1008.08,231.3c3.88-.03,6.08-3.53,6.08-6.86l-.03-29.39c-.39-4.42-3.48-7.42-7.88-7.41l-17.07.04c-4.49,0-8.21,2.92-8.21,7.57l.04,28.96c0,4.09,3.34,7.29,7.43,7.26l19.64-.16Z"/><path class="cls-8" d="M638.48,234.78c.62.2,1.07-.09,1.26-.48.29-.6-.06-1.24-.5-1.38-.37-.12-.98-.09-1.46-.45.05-.44.16-1.32-.84-1.7,1.45.19,1.9-.4,1.9-1.6v-37.96c0-1.24-.5-1.81-1.41-2.14,1.09-11.45,10.02-20.17,21.33-20.22l31.16-.12c12.23-.05,22.06,9.86,22.08,22.02l.07,38.1c.02,11.78-9.23,22.03-21.23,22.02l-32.11-.03c-9.9,0-18-7.09-20.25-16.06ZM684.94,231.27c3.92-.03,6.29-3.45,6.28-6.82l-.1-29.39c-.01-4.05-3.13-7.26-7.05-7.27l-18.73-.03c-4.09,0-7.35,3.24-7.35,7.34l.04,29.13c0,3.78,2.72,7.26,6.69,7.22l20.21-.17Z"/><polygon class="cls-8" points="937.18 250.8 915.04 251.02 915.01 153.54 882.18 153.34 882.22 132.58 971.31 132.57 971.38 153.36 937.12 153.44 937.18 250.8"/><path class="cls-1" d="M775.51,196.47c0-5.42-3.78-8.72-8.42-8.72h-17.4c-2.44,0-4.38,1.8-4.38,4.46l-.02,58.91-21.03-.12.02-82.44,48.93.2c12.88.05,22.22,9.72,22.89,22.55l.1,59.69-20.63.07-.05-54.6Z"/><path class="cls-1" d="M552.08,187.66c-.42,0-1.83-.46-2.27,0l-.13,36.79c0,1.16.73,1.88,1.98,1.79.91,2.72,3.22,5.15,6.62,5.18l15.2.11-.04,19.5-20.88.03c-11.8.02-21.4-9.05-21.6-21.06l-.69-41.92-12.4-.55.15-19.02,12.56-.27.12-21.33,20.62-.03.15,21.68,21.96.04-.03,19.01-21.32.04Z"/><polygon class="cls-2" points="1462.3 251.01 1439.06 251.01 1439.05 132.7 1462.29 132.72 1462.3 251.01"/><path class="cls-11" d="M188.04,368.87c.69,1.35,1.06,2.58,1.03,4.07l-.73,34.65,14.59,1.48,24.14,6.37-62.66.38c-.08-1.97,3.04-3.47,3.11-5.41l.6-16.53-28.69-1.77c-2.94-.18-4.76-1.05-8-.01l-10.2,3.27c3.3-.33,4.33,2.56,5.77,3.32,3.6,1.9,5.76,3.21,8.3,6.21,2.38,2.81,10.47,3.29,11.85,7.5.33,1-.42,2.4-.78,3.45l-70.76.64c.7-3.41.2-4.96-.23-6.67-.56-2.25.19-5.15.7-7.75,38.52-4.3,77.63-16.86,111.96-33.22Z"/><path class="cls-9" d="M189.43,276.51l-.39,32.85c-20.35,8.61-40.52,16.41-62,21.45l-7.06-4.08c-5.24-2.56-7.85-6.23-6.96-11.52,7.12-.33,8.27-11.6,15.06-15.31,3.97-2.17,9.21-4.5,12.52-7.3,7.18.64,12.99-.79,19.66-2.93,3.97-1.27,7.84-1.36,11.81-3.58,4.18-2.34,9.13-3.51,12.38-7.56,1.24-1.54,3-2.23,4.99-2.03Z"/><path class="cls-1" d="M1274.16,195.54l-.02,55.46h-21.42s.24-61.43.24-61.43c.04-11.3,8.41-20.53,19.56-20.66l27.57-.34.13,19.06-18.61.22c-3.74.04-7.44,3.14-7.44,7.7Z"/><path class="cls-3" d="M605.24,194.32l-.22,56.67-21.62.12.2-61.08c.04-11.78,8.81-21.02,20.45-21.17l27.1-.35.04,19.14-18.85.14c-3.02.02-7.08,2.52-7.1,6.53Z"/><path class="cls-14" d="M189.62,245.31l-.09,10.31c-3.31-.98-5.2,2.8-7.98,3.95l-26.06,10.84-10.26,3.89-6.71.93-28.31,7.7.11,13.48c-5.06,1.05-8.88,1.92-13.33,5.7-2.16,1.84-5.35,3.01-8.01,6.28-1.08-7.38,3.69-16.35.05-18.18l2.98-25.54c2.36,3.18,1.2,6.01.07,10.69l18.17-6.82c4.59-2.95,8.87-5.18,14.27-7.46l20.45-8.64,17.26-2.72,10.14-4.02c5.55-2.2,10.91-3.85,14.92-9.59,1.85,3.88-.83,8.55,2.33,9.2Z"/><path class="cls-4" d="M189.53,255.61l-.1,20.9c-2-.2-3.76.48-4.99,2.03-3.24,4.04-8.19,5.22-12.38,7.56-3.97,2.22-7.84,2.3-11.81,3.58-6.67,2.14-12.48,3.56-19.66,2.93-3.31,2.81-8.55,5.13-12.52,7.3-6.79,3.72-7.94,14.98-15.06,15.31l-.21-6.03-22.6,5.19c-.13-1.74.45-3.48-.32-5.59-1.53.91-1.7,2-2.22,2.67l-1.16-.4,2.52-20.86c3.63,1.83-1.13,10.8-.05,18.18,2.66-3.27,5.85-4.44,8.01-6.28,4.45-3.79,8.27-4.66,13.33-5.7l34.74-7.18.18-14.93,10.26-3.89,26.06-10.84c2.77-1.15,4.66-4.93,7.98-3.95Z"/><path class="cls-5" d="M113.02,315.21c-.89,5.29,1.72,8.96,6.96,11.52l7.06,4.08c-14.56,3.42-28.89,6.24-44.2,7.47l3.67-27.22,1.16.4c-.4.76-.48,2.51.37,3.18.46.37,1.61-.14,2.17-.27l22.6-5.19.21,6.03Z"/><path class="cls-13" d="M1431.64,331.84h-92.81c-1.04.01-.93-4.06.04-4.07l92.75-.46c.27,1.32.35,2.28.02,4.53Z"/><path class="cls-13" d="M514.9,327.3c1.12,0,1.29,3.92.25,4.59l-92.23-.09c-1.13-.03-.65-4.51.59-4.5l33.44.13,26.35.08,31.61-.21Z"/><path class="cls-7" d="M896.72,344.7c-.7.61-2.92.12-3.85.55l-.13-12.95c-.03-2.73-1.27-4.74-3.53-5.14-2.45-.43-5.52,1.23-5.55,4.2l-.12,13.58-4.46.1.03-21.35c7.83,1.69,11.72-2.94,16.9,2.65,2.52-1.5,4.84-3.76,8.23-3,2.68.6,5.87,2.43,5.9,6.27l.14,15.64-4-.27.04-12.72c0-2.74-1.52-4.81-3.78-5.13-2.53-.35-5.44,1.1-5.51,4.34l-.3,13.22Z"/><path class="cls-7" d="M708.43,344.8l-4.12.16.08-12.7c.02-2.77-1.49-4.67-3.65-5.06-2.49-.45-5.62,1.12-5.63,4.11l-.06,13.68-4.19.04-.03-21.25c2.22-.14,3.72.6,5.56,1.17,3.87-2.9,8.41-1.89,11.09,1.91,2.31-3.07,5-3.94,8.15-3.47,2.74.41,5.87,2.79,5.9,6.28l.13,15.32-3.99-.07v-12.66c0-2.71-1.43-4.8-3.62-5.13-2.45-.38-5.54,1.23-5.56,4.19l-.07,13.49Z"/><path class="cls-7" d="M1113.28,337.29l-10.38.39-2.81,7.07c-1.63.35-3.18.47-4.77-.08l12.17-29.38c.88-.64,3.98-.72,4.6.16l11.66,28.61c.46,1.12-2.97,1.33-3.83.81-2.82-1.7-1.04-7.78-6.64-7.57ZM1114.73,333.13l-4.91-12.6-5.32,12.89c3.7.3,6.23.66,10.23-.29Z"/><path class="cls-7" d="M615.26,338.08c-4.42-1.56-9.08-.46-13.54-.48-1.82,2.28-2.15,4.81-3.32,7.22-1.69.2-2.95.33-4.55-.11l12.45-29.52c.92-.66,3.99-.46,4.41.55l12,29.12c-1.66.47-3.26.23-4.83-.21l-2.63-6.56ZM613.72,333.51l-5.3-13.32-5.39,13.34,10.69-.02Z"/><path class="cls-7" d="M562.6,337.47l-13.66.28-2.85,7.13c-1.63.3-3.09.3-4.75-.17l12.28-29.27c.54-.86,4.07-.93,4.45,0l12.03,29.28c-1.58.41-2.91.28-4.51.07l-3-7.32ZM561.14,333.28l-5.35-12.72-5.3,12.83c3.99.4,6.85.46,10.65-.11Z"/><path class="cls-7" d="M919.97,355.58l-4.07-.28.07-31.07c1.17-1.09,3.78-.3,4.77,1.43,3.34-2.72,7.25-3.08,10.68-1.37,3.53,1.76,5.68,5.46,5.74,9.87.06,4.51-1.89,8.45-5.51,10.19s-8.15,1.28-11.53-1.93l-.15,13.15ZM925.43,341.59c5,.71,7.71-3.75,7.56-7.75s-3.33-7.58-7.87-6.76c-3.74.68-5.33,4.32-5.25,7.57.06,2.79,1.54,6.36,5.57,6.93Z"/><path class="cls-7" d="M1211.1,343.82c-3.86,1.5-7.96,2.28-11.47.14-3.39-2.07-4.97-6.16-4.66-10.73.27-3.98,2.49-7.24,5.53-8.89,3.65-1.98,7.7-1.18,11.08,1.65l.2-11.57,4.17-.03v30.48c-1.48.77-3.61-.59-4.85-1.06ZM1211.98,334.16c-.01-4.23-2.47-7.13-6.43-7.21-3.68-.07-6.3,3.15-6.44,7.23-.15,4.32,2.56,7.65,6.45,7.67,4.12.03,6.43-3.29,6.42-7.69Z"/><path class="cls-7" d="M860.11,343.86c-5.38,2.73-12.25,1.8-16.22-2.07,1.99-7.79,5.75,2.39,13.32-1.13,1.41-.65,2.37-1.99,2.52-3.2.2-1.57-.49-3.54-2.31-4.2l-6.95-2.51c-3.45-1.24-5.61-3.61-5.85-6.61-.29-3.59.97-6.93,4.75-8.5,4.16-1.72,9.98-1.36,13.22,1.89,1.12,1.13-1.28,4.01-2.7,3.07-2.67-1.76-5.64-2.79-8.58-1.32-1.65.82-2.38,2.56-2.26,3.91.14,1.55,1.17,2.91,2.97,3.5l7.02,2.31c3.04,1,5.23,3.92,5.34,6.79s-1.01,6.41-4.28,8.07Z"/><path class="cls-7" d="M1264.84,333.7c.21,4.86-2.17,8.92-5.45,10.68-3.66,1.97-8.23,1.14-11.2-1.62-.93,1.92-2.01,2.49-4.34,2.2v-30.47c1.49-.28,2.44-.26,3.83-.02l.24,11.6c3.27-2.52,6.83-3.66,10.56-2.09,3.25,1.38,6.14,4.87,6.35,9.72ZM1260.71,334.56c.1-4.6-3.1-7.78-6.72-7.56-3.83.23-6.33,3.16-6.43,7.18s2.32,7.47,6.29,7.58c3.54.1,6.76-2.69,6.86-7.2Z"/><path class="cls-7" d="M957.99,340.77c5.08,2.74,9.24-2.03,10.5-1.38.54.28,1.34,1.35,1.33,2.06-.03,2.71-9.17,6.22-14.88,1.97-3.49-2.6-4.95-7.63-3.68-12.38,1.52-5.69,7.01-8.72,12.46-7.51s8.25,7.05,6.92,12.3l-15.51.06c.4,2.61,1.58,4.19,2.86,4.88ZM966.94,332.15c-.83-4.52-3.91-5.66-7.46-4.94-1.96.39-4.28,2.68-4.05,5.33l11.51-.39Z"/><path class="cls-7" d="M1285.62,340.75c5.38,2.77,9.3-2.13,10.52-1.39.51.31,1.28,1.24,1.23,2.09-.13,2.5-8.34,5.95-14.26,2.39-3.58-2.16-5.2-6.64-4.61-11.34.78-6.17,6.09-10,11.97-9.09,5.57.86,9.02,6.76,7.73,12.31l-15.43.15c.24,2.68,1.53,4.2,2.84,4.87ZM1294.52,332.17c-.67-4.25-3.5-5.43-6.31-5.19-2.47.21-5.08,1.96-5.36,5.39l11.67-.2Z"/><path class="cls-7" d="M1023.83,345.3c-3.53-.74-5.7-3.21-5.87-6.01-.17-2.81,1.5-5.69,4.53-6.72s6.13-.92,9.24-.28c.66-2.2-.55-3.87-1.71-4.56-1.73-1.03-3.61-.88-5.57-.13l-2.6.99c-.73.28-2.85-.84-2.36-1.89,1.27-2.69,4.89-3.23,7.51-3.39,5.49-.33,8.94,3.65,8.96,9.01l.04,12.46c-1.89,1.45-3.78-1.08-4.9-.85-1.97.4-4.39,1.97-7.28,1.37ZM1031.89,335.62c-2.7-.7-4.98-.76-7.32-.14-1.94.52-2.79,2.3-2.44,3.86.28,1.28,1.26,2.32,3.08,2.55,1.98.25,3.69-.12,5-1.25,1.1-.95,2.08-2.42,1.68-5.02Z"/><path class="cls-7" d="M729.82,332.84c2.9-1.48,6.36-1.14,9.32-.53,1.09-2.35-.05-4.21-1.55-4.84-5.26-2.2-9.95,4.41-10.2-.62-.06-1.26.74-1.44,2.22-2.2,4.46-2.28,11.82-2.19,13.43,3.48l.62,17.01c-7.27-1.7-15.46,2.86-17.42-4.14-.87-3.09.06-6.37,3.58-8.16ZM739.09,336.02c-1.44-2.15-8.66-1.1-9.04,1.78-.52,3.84,3.34,4.71,5.78,4.09,1.93-.49,5.06-3.19,3.27-5.87Z"/><path class="cls-1" d="M1014.19,328.05l.06,3.9-12.58.21-.08,12.77-4.28.02.05-29.68h18.06s.03,3.72.03,3.72l-13.21.08c-.97,2.72-.89,5.88-.08,8.87l12.02.11Z"/><path class="cls-7" d="M1176.26,337.34c-1.21,5.63-5.8,7.99-10.47,8.05-4.98.06-9.54-3-10.6-8.4-.94-4.83.55-9.28,4.31-11.8,3.52-2.35,8.19-2.63,11.98-.37,3.93,2.35,5.94,7.1,4.77,12.51ZM1172.47,334.62c.2-4.62-2.95-7.62-6.67-7.6s-6.66,3.09-6.67,7.1c-.02,4.45,2.58,7.71,6.64,7.66,3.48-.04,6.49-2.44,6.7-7.17Z"/><path class="cls-7" d="M1226.42,345.32c-4.1-.53-6.17-3.59-6.03-6.81.26-6.14,6.02-6.7,13.11-6.99,1.59-2.19-.99-4.15-2.35-4.36-4.79-.75-6.42,2.09-7.49,1.85-.83-.18-1.59-1.41-1.62-2.06-.04-.82.93-1.7,2.01-2.27,4.42-2.36,11.73-2.15,13.39,3.43,1.62,5.47.2,11.62.64,16.79-1.91.61-3.48-.75-4.59-1.12-2.14.76-4.06,1.93-7.06,1.55ZM1233.58,335.81c-1.97-1.36-4.65-.8-6.34-.41-2.15.5-2.98,2.27-2.59,3.97.3,1.32,1.36,2.28,3.21,2.49,2.19.25,4.02-.45,5.2-1.9.7-.86,1.9-3.19.52-4.15Z"/><path class="cls-7" d="M672.09,323.77c6.44-2,12.33,2.16,13.67,7.37,1.58,6.15-1.49,12.26-7.07,13.8-5.97,1.65-12.01-1.28-13.77-6.88-1.8-5.7.78-12.31,7.17-14.29ZM673.62,341.54c5.58,1.32,8.71-3.55,8.4-7.78-.34-4.61-4.29-7.78-9.05-6.27-3.29,1.04-4.45,4.18-4.33,7.15.11,2.59,1.26,6.02,4.97,6.9Z"/><path class="cls-7" d="M781.89,323.67c6.49-1.75,12.1,2.31,13.39,7.69,1.47,6.09-1.55,12.22-7.52,13.65s-11.69-1.35-13.45-7.38c-1.54-5.27,1.04-12.19,7.58-13.96ZM783.46,341.56c5.07.98,8.11-3.24,8.11-6.94,0-4.48-3.01-8.15-7.85-7.42-4.03.6-5.74,3.84-5.63,7.42.08,2.66,1.49,6.19,5.38,6.95Z"/><path class="cls-7" d="M814.43,344.87v-12.61c-.01-3.15-1.91-5.23-4.68-5.28s-5.34,2.08-5.37,5.43l-.09,12.36c-1.32.31-2.55.22-4.15.12l.08-21.42c1.92-.7,3.87,1.04,5.14,1.35,2.57-.87,4.78-2.04,7.56-1.25,1.92.55,5.15,2.25,5.21,5.2l.32,16.29c-1.41.19-2.13.06-4.01-.18Z"/><path class="cls-7" d="M640.17,324.16c1.12-.46,2.62-.51,4.09-.2l-.06,21.28c-3.42-.88-6-.86-9.31-.06-3.8.91-8.64-1.48-8.71-5.47l-.28-15.78,4.1.02-.05,12.17c-.01,3.27,1.8,5.32,4.57,5.48,2.56.15,5.55-1.42,5.57-4.56l.09-12.87Z"/><path class="cls-7" d="M1049.21,345.29c-3.63.16-7.88-.15-8.91-3.25-.28-.85,1.08-2.72,1.67-2.58s1.63.34,2.53,1.16c2.11,1.91,7.2,1.67,7.31-1.69.12-3.57-10.25-2.05-11.12-8.24-.37-2.65.87-5.39,3.6-6.61,3.68-1.65,7.93-.77,10.85,1.55-.11,5.84-10.06-2.03-10.26,3.88-.13,3.72,11.56,2.01,11.14,9.86-.17,3.18-2.58,5.72-6.82,5.91Z"/><path class="cls-7" d="M1148.11,327.39l-.4,17.77-4-.5c.06-5.44.78-11.93-.37-16.79l-3.34-1.05c-.51-.16-.48-2.68.72-2.86l2.23-.35c1.79-.28-.12-5.17,2.53-7.79s7.56-2.65,7.94-.73c.9,4.48-4.18.84-5.5,4.45-.67,1.83-.22,4.06,2.19,4.07.89,0,2.13-.18,2.49.26.53.66.75,2.53.26,3.09s-2.96.27-4.74.44Z"/><path class="cls-7" d="M1133.5,327.55l-.55,17.3c-1.42.31-3.53.41-4.01-.44-.21-5.26.77-11.73-.49-16.53l-3.32-1.11c-.4-.13-.32-2.47.56-2.67,1.22-.29,2.22-.46,2.74-1.01.58-.61.62-1.76.63-2.78.04-4.12,2.93-6.51,6.87-6.49,1.46,0,2.17.03,2.57,1.14,1.45,4.06-3.48,1.45-4.99,4.09-.51.89-.82,2.8-.06,3.94.67,1,2.88.91,4.55.89.73.08.55,2.34.27,3.01-.36.84-3.85-.09-4.77.66Z"/><path class="cls-7" d="M755.25,339.63c.02,2.33,4.1,2.08,5.32,1.64.49,1.57.39,2.71.02,3.45-.25.52-1.59.31-2.39.46-3.74.72-7.07-.9-7.2-4.62l-.43-12.81c-.39-.48-2.44-.58-2.96-.66-.69-.11-.73-2.24-.12-2.64,1.09-.72,2.6-.67,3.07-1.35.72-1.03.46-2.57.45-4.07-.01-1.34,3.98-1.46,3.97-.12,0,1.63,0,3.55.77,4.36.65.68,2.65.3,4.06.18.89-.07,1.25,3.11.47,3.65l-5.13.66.12,11.88Z"/><path class="cls-7" d="M1066.09,338.01c-.04,1.37.34,2.51,1.18,3.07.72.48,2.02.5,3.33.27,1.95-.35,1.54,1.77,1.37,2.59-.29,1.39-1.81,1.31-3.2,1.39-3.38.21-6.39-1.13-6.54-4.6l-.59-13.36c-1.77.17-3.38-.23-3.45-1.18-.11-1.39.27-2.33,2-2.42,3.23-.16,1.35-4.97,2.46-5.49.55-.26,1.82-.22,2.66-.09,1.71.25.16,4.06,1.28,5.05,1.88,1.65,6.11-.97,5.36,3.56l-5.56.78-.32,10.44Z"/><path class="cls-7" d="M655.7,337.58c-.03,1.49.4,2.75.91,3.14.91.7,2.18.98,4.13.6.79-.15,1.12,1.95.69,2.72-.51.91-1.43,1.06-2.82,1.21-3.5.37-6.71-1.15-6.83-4.88l-.38-11.91c-.02-.77-1.89-1.23-2.47-1.27-.86-.06-1.35-2.55-.27-3.01,5.42-2.31,1.35-5.5,4.84-5.86,1.84-.19,2.78.33,2.28,2.64-.16.75-.12,1.81.1,2.28.65,1.39,4.47.14,5.05.64.46.39.58,1.57.32,3.12l-5.38.46-.17,10.11Z"/><path class="cls-7" d="M946.11,344.8c-1.57.26-2.94.13-4.28,0l.03-30.31,4.12-.06.12,30.36Z"/><path class="cls-7" d="M578.6,344.76l-4.18.2v-29.56c1.68-.39,3-.24,4.16-.01l.02,29.37Z"/><path class="cls-7" d="M1185.36,344.7c-1.29.4-2.72.28-4.38.25l.33-20.59c.02-1.47,3.94-.17,4.45,1.1,2.26-1.39,5.09-3.04,7.47-1.72l-.11,2.9c-.05,1.32-7.89-.12-7.85,5.76l.09,12.31Z"/><path class="cls-1" d="M1273.69,344.51c-.87.71-2.56.59-3.91.45l-.23-30.46c1.41-.22,2.31-.29,3.93.05l.21,29.96Z"/><path class="cls-7" d="M769.46,344.46c-1.15.73-2.7.6-4.2.47l-.03-20.83c1.25-.35,2.53-.41,4.18-.14l.05,20.49Z"/><path class="cls-11" d="M99.63,122.94c-.43.15-1.84-.08-1.69-.39l.74-10.92c3.91,4.55,3.34-.81,1.88-10.23.99-.39,1.4-1.23,1.38-2.08,1.79.22,3.27,1.68,3.06,4l-1.21,13.57c-.2,2.25-3.74,3.76-4.16,6.06Z"/><path class="cls-7" d="M271.4,92.69l.22.57c-.76,1.02-1.38,2.55-.99,4.24.73,3.16-.24,5.9.17,8.48l.88,5.52c.18,1.15,1.49,1.46,2.12.77.22,1.69.54,3.44.45,5.17l-1.95,2.72h-1s-1.78-.05-1.78-.05c-.16-.14-.43-.23-.62,0l-.9-23.43c-.05-1.26.17-2.4.84-3.04s1.73-.77,2.56-.93Z"/><path class="cls-3" d="M873.31,344.28c-1.86.83-3.02.52-4.28.15l.2-20.29c.57-.86,3.76-.51,3.77.38l.31,19.77Z"/><path class="cls-7" d="M636.93,230.77l.49-41.7c.91.32,1.41.9,1.41,2.14v37.96c0,1.2-.46,1.79-1.91,1.6Z"/><path class="cls-3" d="M552.08,187.66l-.42,38.59c-1.25.09-1.98-.63-1.98-1.79l.13-36.79c.45-.47,1.85,0,2.27,0Z"/><path class="cls-8" d="M146.81,91.72c-.03,3.32.32,6.57-.56,9.78-.72,2.64-3.1,4.54-5.42,5.28-.74-7.31,1.73-14.78,5.98-15.06Z"/><path class="cls-7" d="M1081.21,340.78c-.43,5.13-2.66,10.71-6.23,9.38l1.55-5.04c-.62-2.2-.81-3.35.15-4.56.77-.97,4.02-1.07,4.53.22Z"/><path class="cls-7" d="M979.97,340.41c.8,5.41-3.01,11.49-5.34,9.83-.4-.28-.2-1.32.3-1.97,2.47-3.16-.67-6.15,1.19-7.81.62-.55,2.8-.8,3.85-.05Z"/><path class="cls-3" d="M859.12,285.06l-44.18-.08c-.74,0-1.22-.63-1.1-1.3l44.6.33c.75,0,1.13.7.68,1.05Z"/><path class="cls-11" d="M824.5,340.5c1.44-1.04,3.19-.5,3.86.52.61.94.47,3.01-.51,3.66-1.04.69-2.57.6-3.3.13-1.25-.82-1.64-3.15-.05-4.3Z"/><path class="cls-7" d="M1303.22,340.54c1.21-.94,3.22-.81,4.15.51.57.82.83,2.38-.42,3.51-.78.71-2.38,1.04-3.76.03-.98-.72-1.6-2.79.03-4.05Z"/><path class="cls-7" d="M870.24,314.83c1.57-.46,2.7.36,3.05,1.23.65,1.6.13,3.18-1.25,3.71-1.3.5-3.05.07-3.55-1.48-.37-1.17.05-2.96,1.75-3.46Z"/><path class="cls-7" d="M765.9,315.09c1.52-.88,3-.14,3.56.65.89,1.25.42,2.9-.45,3.45-1.14.73-2.69.68-3.38.16-1.11-.84-1.43-3.28.27-4.27Z"/><path class="cls-12" d="M101.94,99.31c.02.85-.39,1.69-1.38,2.08-.2-1.28-1.18-2.72-.37-4.29l1.75,2.21Z"/><path class="cls-14" d="M92.84,260.76c.95-1.89.05-3.74.22-5.55,1.5.67,1.13,2.04,1.27,2.76.28,1.47.35,3.29-1.48,2.78Z"/><path class="cls-7" d="M638.48,234.78c-.2-.78-.82-1.25-.7-2.32.48.36,1.09.33,1.46.45.44.14.79.77.5,1.38-.19.4-.64.68-1.26.48Z"/><path class="cls-10" d="M268.9,120.09c.19-.23.46-.14.62,0-.34.3,0,1.08.4,1.09s1.09-.6,1.37-1.04h1s.03,1.55.03,1.55c.01.57,1.38.91,1.61.22.49-1.5.25-3.15.31-4.48.09-1.73-.24-3.48-.45-5.17l-.8-6.24-1.39-12.76-.22-.57c.62-1.33,1.67-1.69,3.04-1.07l18.88,8.63v54.83s-15.37,6.85-15.37,6.85c.45-.66,1.12-2.72.13-3.09l-64.99-24.7c-8.77-3.33-16.88-5.82-25.19-10.81l-95.53,36.65c-4.62-.9-8.53-1.92-12.29-3.66.43-1.42,1.51-1.28,3.02-1.86l106.32-40.6.05-59.01c2.43-.07,4.48.99,6.98,2.1l17.17,7.61.09,34.8,16.54,6.37c-1.05-9.98-1.09-18.45-1.12-27.78,1.41-1.73,3.25-2.77,5.35-3.81l20.32,8.91c.64,10.25.32,20.07-.17,31.08,4.65,2.55,9.5,4.51,14.25,5.95ZM231.09,105.12l-.47.47.47.47.47-.47-.47-.47Z"/><path class="cls-4" d="M250.48,216.14l-26.06-7.2-.19-16.79,25.6,8.5c1.31,4.96,1.03,9.91.64,15.49Z"/><polygon class="cls-11" points="274.98 242.77 249.94 236.25 249.62 220.12 274.12 227.29 274.98 242.77"/><path class="cls-4" d="M218.59,207.05c-7.33-1.76-14.88-2.52-22.82-3.64-1.65-.23-3.37-.63-3.2-3.22,8.77-.18,17.31,1.31,25.87,4.24.46.16,1.04,1.26.15,2.62Z"/><path class="cls-5" d="M164.42,415.83l-18.05.03c.36-1.05,1.11-2.45.78-3.45-1.38-4.2-9.46-4.69-11.85-7.5-2.54-3-4.7-4.32-8.3-6.21-1.44-.76-2.48-3.64-5.77-3.32l10.2-3.27c3.25-1.04,5.06-.17,8,.01l28.69,1.77-.6,16.53c-.07,1.94-3.2,3.44-3.11,5.41Z"/><path class="cls-9" d="M246.38,379.56c1.24-2.1-4.73-2.84-10.55-2.87-.74-5.84-.73-11.44.13-17.78l40.39,9.22c1.17,5.03,1.01,10.09-.29,15.24l-22.53-3.49-.42-10.67h-1.36c-.63,3.05.16,5.97.38,9.8-1.73,1.13-3.74.8-5.74.56Z"/><path class="cls-7" d="M288.65,407.49l-20.97-4.16-.2-11.76c7.15-.38,13.45,1.72,20.64,2.72l.53,13.2Z"/><path class="cls-12" d="M246.38,379.56l-8.15-1.01c-.72-.09-2.3-1.11-2.39-1.86,5.82.03,11.79.77,10.55,2.87Z"/><path class="cls-8" d="M126.2,245.46l-.04-39.09c.89-8.19,5.24-16,12.84-18.58,8.12-2.75,16.86,4.06,16.98,12.96l.52,36.66-30.29,8.04Z"/><path class="cls-14" d="M273.01,106.02l-2.2-.05c-.41-2.58.56-5.32-.17-8.48-.39-1.69.22-3.21.99-4.24l1.39,12.76Z"/><path class="cls-5" d="M273.01,106.02l.8,6.24c-.64.68-1.94.38-2.12-.77l-.88-5.52,2.2.05Z"/><path class="cls-5" d="M272.31,120.15l1.95-2.72c-.07,1.33.18,2.97-.31,4.48-.23.7-1.6.35-1.61-.22l-.03-1.54Z"/><path class="cls-5" d="M271.3,120.14c-.28.43-.97,1.04-1.37,1.04s-.74-.79-.4-1.09l1.78.05Z"/><polygon class="cls-5" points="145.23 274.29 145.04 289.22 110.31 296.4 110.2 282.91 138.51 275.21 145.23 274.29"/><path class="cls-14" d="M90.21,314.37c-.56.13-1.71.64-2.17.27-.85-.67-.77-2.42-.37-3.18.52-.67.68-1.76,2.22-2.67.78,2.1.19,3.84.32,5.59Z"/></g></svg>